<svg id="svg" version="1.1" xmlns="http://www.w3.org/2000/svg" xmlns:xlink="http://www.w3.org/1999/xlink" width="400" height="400" viewBox="0, 0, 400,400"><g id="svgg"><path id="path0" d="M194.133 0.156 C 84.537 4.459,0.243 91.430,0.184 200.267 C 0.117 322.182,108.837 415.751,229.600 397.712 C 350.341 379.676,426.672 258.614,391.183 141.439 C 365.281 55.920,282.660 -3.319,194.133 0.156 M156.667 41.335 C 205.251 43.559,231.207 71.278,227.205 116.667 C 222.952 164.906,190.420 196.411,139.044 202.045 C 134.665 202.525,58.553 202.938,58.123 202.484 C 57.978 202.331,85.350 64.418,89.882 42.467 L 90.171 41.067 120.619 41.073 C 137.365 41.076,153.587 41.194,156.667 41.335 M102.713 63.133 C 99.442 79.742,78.092 186.840,77.967 187.267 C 77.676 188.263,132.367 187.850,141.067 186.790 C 178.336 182.250,204.101 157.589,209.315 121.467 C 214.653 84.483,198.303 61.540,163.333 56.939 C 157.828 56.215,149.930 56.014,126.659 56.007 L 104.118 56.000 102.713 63.133 M292.400 179.732 C 331.965 181.626,350.737 204.018,343.447 240.622 C 338.861 263.652,320.929 281.434,297.000 286.682 C 296.157 286.867,295.467 287.040,295.467 287.066 C 295.467 287.092,302.167 298.983,310.356 313.490 C 318.545 327.997,325.389 340.137,325.565 340.467 L 325.885 341.067 316.569 341.067 L 307.253 341.067 292.760 315.440 L 278.267 289.813 251.337 289.850 C 236.526 289.870,224.332 289.972,224.240 290.076 C 224.090 290.246,214.108 340.376,214.126 340.867 C 214.130 340.977,210.233 341.067,205.467 341.067 C 200.700 341.067,196.800 341.036,196.800 340.999 C 196.800 340.961,204.060 304.632,212.933 260.267 C 221.807 215.901,229.067 179.572,229.067 179.535 C 229.067 179.333,287.901 179.516,292.400 179.732 M243.124 195.244 C 242.869 196.730,227.184 273.966,227.035 274.467 C 226.872 275.018,270.095 275.183,277.912 274.660 C 307.349 272.693,324.278 258.917,327.222 234.533 C 330.049 211.110,319.072 197.803,294.533 194.907 C 292.750 194.697,283.815 194.553,267.572 194.474 L 243.277 194.355 243.124 195.244 " stroke="none" fill="#cccccc" fill-rule="evenodd"></path><path id="path1" d="M74.275 121.400 C 65.490 165.437,58.249 201.682,58.184 201.944 C 58.070 202.402,59.694 202.418,97.099 202.328 C 138.027 202.230,137.608 202.241,145.867 201.056 C 188.496 194.941,218.907 166.425,225.851 126.056 C 233.409 82.120,214.408 51.713,174.267 43.510 C 164.291 41.471,161.051 41.333,123.103 41.333 L 90.248 41.333 74.275 121.400 M163.467 56.755 C 195.344 61.374,211.140 79.541,210.315 110.637 C 209.197 152.724,182.799 181.545,140.267 187.114 C 135.741 187.707,77.867 187.990,77.867 187.420 C 77.867 187.047,103.672 57.248,103.904 56.453 C 104.145 55.629,157.563 55.900,163.467 56.755 M213.241 259.533 C 204.464 303.423,197.220 339.663,197.144 340.067 L 197.004 340.800 205.430 340.800 L 213.857 340.800 214.003 340.200 C 214.084 339.870,216.360 328.456,219.061 314.836 C 221.762 301.216,224.008 290.038,224.053 289.996 C 224.097 289.954,236.350 289.879,251.281 289.829 L 278.428 289.740 292.846 315.270 L 307.264 340.800 316.434 340.800 L 325.605 340.800 324.814 339.400 C 324.380 338.630,317.553 326.540,309.643 312.533 C 301.734 298.527,295.294 287.031,295.333 286.987 C 295.371 286.944,296.707 286.566,298.302 286.147 C 322.022 279.919,338.193 263.913,343.040 241.867 C 350.366 208.546,335.571 186.063,302.933 180.918 C 296.135 179.846,292.110 179.735,259.866 179.734 L 229.199 179.733 213.241 259.533 M296.667 195.002 C 318.521 198.555,328.227 209.256,327.660 229.170 C 326.855 257.498,309.140 273.201,276.052 274.919 C 266.040 275.439,226.934 275.291,226.932 274.733 C 226.930 274.293,242.841 195.457,243.081 194.721 C 243.266 194.151,293.036 194.411,296.667 195.002 " stroke="none" fill="#3c7cac" fill-rule="evenodd"></path><path id="path2" d="M154.867 56.188 C 155.197 56.252,155.737 56.252,156.067 56.188 C 156.397 56.125,156.127 56.073,155.467 56.073 C 154.807 56.073,154.537 56.125,154.867 56.188 M196.933 71.733 C 197.506 72.320,198.035 72.800,198.108 72.800 C 198.182 72.800,197.773 72.320,197.200 71.733 C 196.627 71.147,196.098 70.667,196.025 70.667 C 195.952 70.667,196.360 71.147,196.933 71.733 M227.267 102.267 C 227.270 102.853,227.325 103.062,227.389 102.730 C 227.452 102.399,227.450 101.919,227.383 101.664 C 227.316 101.409,227.264 101.680,227.267 102.267 M227.267 112.667 C 227.270 113.253,227.325 113.462,227.389 113.130 C 227.452 112.799,227.450 112.319,227.383 112.064 C 227.316 111.809,227.264 112.080,227.267 112.667 M210.195 113.333 C 210.195 113.847,210.250 114.057,210.317 113.800 C 210.384 113.543,210.384 113.123,210.317 112.867 C 210.250 112.610,210.195 112.820,210.195 113.333 M292.736 179.922 C 293.068 179.986,293.548 179.983,293.803 179.917 C 294.058 179.850,293.787 179.798,293.200 179.801 C 292.613 179.804,292.405 179.858,292.736 179.922 M131.936 187.655 C 132.268 187.719,132.748 187.717,133.003 187.650 C 133.258 187.583,132.987 187.531,132.400 187.534 C 131.813 187.537,131.605 187.591,131.936 187.655 M333.600 195.283 C 333.600 195.329,333.990 195.719,334.467 196.150 L 335.333 196.933 334.550 196.067 C 333.820 195.259,333.600 195.077,333.600 195.283 M133.536 202.322 C 133.868 202.386,134.348 202.383,134.603 202.317 C 134.858 202.250,134.587 202.198,134.000 202.201 C 133.413 202.204,133.205 202.258,133.536 202.322 M315.458 260.467 L 314.000 262.000 315.533 260.542 C 316.958 259.188,317.189 258.933,316.991 258.933 C 316.949 258.933,316.259 259.623,315.458 260.467 M238.333 275.133 C 244.677 275.173,255.057 275.173,261.400 275.133 C 267.743 275.093,262.553 275.061,249.867 275.061 C 237.180 275.061,231.990 275.093,238.333 275.133 M271.800 289.791 C 272.203 289.852,272.863 289.852,273.267 289.791 C 273.670 289.730,273.340 289.680,272.533 289.680 C 271.727 289.680,271.397 289.730,271.800 289.791 M213.867 340.489 C 213.867 340.718,211.637 340.817,205.400 340.863 L 196.933 340.925 205.316 341.000 C 213.172 341.070,214.650 340.961,214.049 340.360 C 213.949 340.260,213.867 340.318,213.867 340.489 M311.649 340.999 C 314.170 341.043,318.370 341.043,320.983 341.000 C 323.596 340.956,321.533 340.920,316.400 340.920 C 311.267 340.920,309.129 340.956,311.649 340.999 " stroke="none" fill="#85a4bc" fill-rule="evenodd"></path><path id="path3" d="" stroke="none" fill="#95aebf" fill-rule="evenodd"></path><path id="path4" d="M105.800 41.267 C 114.490 41.306,128.710 41.306,137.400 41.267 C 146.090 41.228,138.980 41.196,121.600 41.196 C 104.220 41.196,97.110 41.228,105.800 41.267 M151.804 56.191 C 152.209 56.253,152.809 56.251,153.137 56.188 C 153.465 56.124,153.133 56.074,152.400 56.076 C 151.667 56.078,151.398 56.130,151.804 56.191 M210.133 61.467 C 210.631 61.980,211.098 62.400,211.171 62.400 C 211.245 62.400,210.898 61.980,210.400 61.467 C 209.902 60.953,209.435 60.533,209.362 60.533 C 209.289 60.533,209.636 60.953,210.133 61.467 M210.201 104.933 C 210.204 105.520,210.258 105.729,210.322 105.397 C 210.386 105.065,210.383 104.585,210.317 104.330 C 210.250 104.075,210.198 104.347,210.201 104.933 M210.195 111.200 C 210.195 111.713,210.250 111.923,210.317 111.667 C 210.384 111.410,210.384 110.990,210.317 110.733 C 210.250 110.477,210.195 110.687,210.195 111.200 M244.087 179.667 C 252.422 179.706,265.982 179.706,274.221 179.667 C 282.459 179.627,275.640 179.595,259.067 179.595 C 242.493 179.595,235.753 179.628,244.087 179.667 M129.133 187.650 C 129.390 187.718,129.810 187.718,130.067 187.650 C 130.323 187.583,130.113 187.529,129.600 187.529 C 129.087 187.529,128.877 187.583,129.133 187.650 M287.670 194.589 C 288.001 194.652,288.481 194.650,288.736 194.583 C 288.991 194.516,288.720 194.464,288.133 194.467 C 287.547 194.470,287.338 194.525,287.670 194.589 M75.933 202.600 C 85.797 202.639,101.937 202.639,111.800 202.600 C 121.663 202.561,113.593 202.530,93.867 202.530 C 74.140 202.530,66.070 202.561,75.933 202.600 M344.862 225.333 C 344.862 225.847,344.917 226.057,344.984 225.800 C 345.051 225.543,345.051 225.123,344.984 224.867 C 344.917 224.610,344.862 224.820,344.862 225.333 M275.000 289.784 C 275.257 289.851,275.677 289.851,275.933 289.784 C 276.190 289.717,275.980 289.662,275.467 289.662 C 274.953 289.662,274.743 289.717,275.000 289.784 " stroke="none" fill="#aabac4" fill-rule="evenodd"></path></g></svg>